<svg width="54" height="91" viewBox="0 0 54 91" fill="none" xmlns="http://www.w3.org/2000/svg">
<path d="M33.808 42.344C35.728 42.344 37.36 42.616 38.704 43.16C40.048 43.704 41.36 44.472 42.64 45.464C42.992 45.752 43.296 45.896 43.552 45.896C44.192 45.896 44.608 44.936 44.8 43.016H45.904C45.776 45.096 45.712 48.776 45.712 54.056H44.608C44.256 51.976 43.936 50.488 43.648 49.592C43.36 48.664 42.88 47.784 42.208 46.952C41.248 45.704 40.016 44.776 38.512 44.168C37.04 43.528 35.44 43.208 33.712 43.208C31.632 43.208 29.808 43.896 28.24 45.272C26.704 46.648 25.504 48.616 24.64 51.176C23.776 53.704 23.344 56.68 23.344 60.104C23.344 63.592 23.808 66.584 24.736 69.08C25.664 71.576 26.944 73.48 28.576 74.792C30.24 76.072 32.112 76.712 34.192 76.712C35.792 76.712 37.344 76.408 38.848 75.8C40.352 75.192 41.536 74.28 42.4 73.064C43.04 72.168 43.504 71.208 43.792 70.184C44.08 69.16 44.352 67.592 44.608 65.48H45.712C45.712 70.984 45.776 74.824 45.904 77H44.8C44.704 75.976 44.56 75.256 44.368 74.84C44.208 74.392 43.968 74.168 43.648 74.168C43.392 74.168 43.056 74.296 42.64 74.552C41.2 75.576 39.824 76.36 38.512 76.904C37.2 77.416 35.616 77.672 33.76 77.672C30.72 77.672 28.048 76.984 25.744 75.608C23.472 74.232 21.696 72.248 20.416 69.656C19.168 67.032 18.544 63.912 18.544 60.296C18.544 56.776 19.184 53.656 20.464 50.936C21.776 48.216 23.584 46.104 25.888 44.6C28.224 43.096 30.864 42.344 33.808 42.344Z" fill="#10B981"/>
<path d="M16.384 22.984C18.2613 22.984 19.7333 23.1973 20.8 23.624C21.9093 24.008 23.04 24.584 24.192 25.352C25.1307 25.9493 25.856 26.248 26.368 26.248C26.752 26.248 27.0507 26.0347 27.264 25.608C27.4773 25.1387 27.648 24.4133 27.776 23.432H29.248C29.0347 25.9067 28.928 30.2587 28.928 36.488H27.456C27.2 33.032 26.1973 30.1307 24.448 27.784C22.7413 25.3947 20.2453 24.2 16.96 24.2C14.656 24.2 12.7787 24.904 11.328 26.312C9.87733 27.6773 9.152 29.448 9.152 31.624C9.152 33.2453 9.51467 34.6533 10.24 35.848C11.008 37.0427 11.968 38.0667 13.12 38.92C14.272 39.7733 15.9147 40.8613 18.048 42.184L19.904 43.336C22.592 45 24.704 46.472 26.24 47.752C27.8187 48.9893 29.0773 50.4187 30.016 52.04C30.9547 53.6613 31.424 55.56 31.424 57.736C31.424 61.6187 30.144 64.6267 27.584 66.76C25.024 68.8507 21.7813 69.896 17.856 69.896C15.808 69.896 14.1227 69.6827 12.8 69.256C11.52 68.8293 10.2827 68.2533 9.088 67.528C8.14933 66.9307 7.424 66.632 6.912 66.632C6.528 66.632 6.22933 66.8667 6.016 67.336C5.80267 67.7627 5.632 68.4667 5.504 69.448H4.032C4.20267 67.1013 4.288 61.9813 4.288 54.088H5.76C6.05867 58.3973 7.12533 61.896 8.96 64.584C10.7947 67.272 13.6107 68.616 17.408 68.616C19.712 68.616 21.6747 67.912 23.296 66.504C24.9173 65.0533 25.728 62.92 25.728 60.104C25.728 57.7147 24.9173 55.688 23.296 54.024C21.7173 52.36 19.2 50.4827 15.744 48.392C13.2267 46.856 11.1787 45.4907 9.6 44.296C8.064 43.1013 6.80533 41.672 5.824 40.008C4.84267 38.3013 4.352 36.3173 4.352 34.056C4.352 30.472 5.504 27.7413 7.808 25.864C10.112 23.944 12.9707 22.984 16.384 22.984Z" fill="#2563EB"/>
</svg>
